<svg xmlns="http://www.w3.org/2000/svg" xmlns:xlink="http://www.w3.org/1999/xlink" width="500" zoomAndPan="magnify" viewBox="0 0 375 374.999991" height="500" preserveAspectRatio="xMidYMid meet" version="1.0"><defs><g/><clipPath id="b40fdde1f2"><path d="M 88.144531 169 L 130 169 L 130 211 L 88.144531 211 Z M 88.144531 169 " clip-rule="nonzero"/></clipPath><clipPath id="ba9de216e2"><path d="M 252 156.367188 L 258 156.367188 L 258 162 L 252 162 Z M 252 156.367188 " clip-rule="nonzero"/></clipPath><clipPath id="56c0340156"><path d="M 284 156.367188 L 286.894531 156.367188 L 286.894531 160 L 284 160 Z M 284 156.367188 " clip-rule="nonzero"/></clipPath></defs><path fill="#705ce4" d="M 286.898438 211.082031 C 286.898438 227.320312 273.609375 240.613281 257.367188 240.613281 L 246.753906 288.03125 L 191.257812 240.613281 L 117.703125 240.613281 C 101.457031 240.613281 88.167969 227.320312 88.167969 211.082031 L 88.167969 128.242188 C 88.167969 112 101.457031 98.707031 117.703125 98.707031 L 257.367188 98.707031 C 273.609375 98.707031 286.898438 112 286.898438 128.242188 Z M 187.535156 0.0117188 C 83.96875 0.0117188 0.0117188 83.96875 0.0117188 187.535156 C 0.0117188 291.097656 83.96875 375.050781 187.535156 375.050781 C 291.097656 375.050781 375.050781 291.097656 375.050781 187.535156 C 375.050781 83.96875 291.097656 0.0117188 187.535156 0.0117188 " fill-opacity="1" fill-rule="nonzero"/><g clip-path="url(#b40fdde1f2)"><path fill="#705ce4" d="M 108.808594 210.796875 C 97.480469 210.796875 88.261719 201.578125 88.261719 190.25 C 88.261719 178.921875 97.480469 169.703125 108.808594 169.703125 C 120.136719 169.703125 129.355469 178.921875 129.355469 190.25 C 129.355469 201.578125 120.136719 210.796875 108.808594 210.796875 Z M 108.808594 171.914062 C 98.695312 171.914062 90.46875 180.140625 90.46875 190.25 C 90.46875 200.363281 98.695312 208.589844 108.808594 208.589844 C 118.921875 208.589844 127.148438 200.363281 127.148438 190.25 C 127.148438 180.140625 118.921875 171.914062 108.808594 171.914062 Z M 108.808594 171.914062 " fill-opacity="1" fill-rule="nonzero"/></g><path fill="#705ce4" d="M 126.796875 180.324219 L 179.507812 180.324219 L 179.507812 181.648438 L 126.796875 181.648438 Z M 126.796875 180.324219 " fill-opacity="1" fill-rule="nonzero"/><path fill="#705ce4" d="M 179.371094 183.726562 C 180.886719 183.726562 182.113281 182.496094 182.113281 180.984375 C 182.113281 179.472656 180.886719 178.246094 179.371094 178.246094 C 177.859375 178.246094 176.632812 179.472656 176.632812 180.984375 C 176.632812 182.496094 177.859375 183.726562 179.371094 183.726562 Z M 179.371094 183.726562 " fill-opacity="1" fill-rule="nonzero"/><path fill="#705ce4" d="M 127.777344 193.769531 L 180.320312 193.769531 L 180.320312 195.09375 L 127.777344 195.09375 Z M 127.777344 193.769531 " fill-opacity="1" fill-rule="nonzero"/><path fill="#705ce4" d="M 180.179688 197.171875 C 181.691406 197.171875 182.921875 195.941406 182.921875 194.429688 C 182.921875 192.917969 181.691406 191.691406 180.179688 191.691406 C 178.667969 191.691406 177.441406 192.917969 177.441406 194.429688 C 177.441406 195.941406 178.667969 197.171875 180.179688 197.171875 Z M 180.179688 197.171875 " fill-opacity="1" fill-rule="nonzero"/><path fill="#705ce4" d="M 127.855469 188.679688 L 184.015625 188.679688 L 184.015625 190.007812 L 127.855469 190.007812 Z M 127.855469 188.679688 " fill-opacity="1" fill-rule="nonzero"/><path fill="#705ce4" d="M 183.878906 192.082031 C 185.390625 192.082031 186.617188 190.855469 186.617188 189.339844 C 186.617188 187.828125 185.390625 186.601562 183.878906 186.601562 C 182.367188 186.601562 181.140625 187.828125 181.140625 189.339844 C 181.140625 190.855469 182.367188 192.082031 183.878906 192.082031 Z M 183.878906 192.082031 " fill-opacity="1" fill-rule="nonzero"/><path fill="#705ce4" d="M 122.6875 202.855469 L 190.984375 202.855469 L 190.984375 204.179688 L 122.6875 204.179688 Z M 122.6875 202.855469 " fill-opacity="1" fill-rule="nonzero"/><path fill="#705ce4" d="M 190.847656 206.257812 C 192.359375 206.257812 193.585938 205.027344 193.585938 203.515625 C 193.585938 202.003906 192.359375 200.777344 190.847656 200.777344 C 189.335938 200.777344 188.105469 202.003906 188.105469 203.515625 C 188.105469 205.027344 189.335938 206.257812 190.847656 206.257812 Z M 190.847656 206.257812 " fill-opacity="1" fill-rule="nonzero"/><path fill="#705ce4" d="M 120.984375 175.597656 L 235.765625 175.597656 L 235.765625 176.921875 L 120.984375 176.921875 Z M 120.984375 175.597656 " fill-opacity="1" fill-rule="nonzero"/><path fill="#705ce4" d="M 235.628906 179 C 237.140625 179 238.371094 177.773438 238.371094 176.261719 C 238.371094 174.746094 237.140625 173.519531 235.628906 173.519531 C 234.117188 173.519531 232.890625 174.746094 232.890625 176.261719 C 232.890625 177.773438 234.117188 179 235.628906 179 Z M 235.628906 179 " fill-opacity="1" fill-rule="nonzero"/><path fill="#705ce4" d="M 236.785156 176.484375 L 254.695312 158.574219 L 255.476562 159.355469 L 237.566406 177.265625 Z M 236.785156 176.484375 " fill-opacity="1" fill-rule="nonzero"/><g clip-path="url(#ba9de216e2)"><path fill="#705ce4" d="M 256.621094 160.660156 C 257.511719 159.769531 257.511719 158.324219 256.621094 157.433594 C 255.726562 156.542969 254.285156 156.542969 253.390625 157.433594 C 252.5 158.324219 252.5 159.769531 253.390625 160.660156 C 254.285156 161.554688 255.726562 161.554688 256.621094 160.660156 Z M 256.621094 160.660156 " fill-opacity="1" fill-rule="nonzero"/></g><path fill="#705ce4" d="M 255.695312 157.410156 L 285.589844 157.410156 L 285.589844 158.074219 L 255.695312 158.074219 Z M 255.695312 157.410156 " fill-opacity="1" fill-rule="nonzero"/><g clip-path="url(#56c0340156)"><path fill="#705ce4" d="M 285.519531 159.113281 C 286.277344 159.113281 286.890625 158.496094 286.890625 157.742188 C 286.890625 156.988281 286.277344 156.375 285.519531 156.375 C 284.765625 156.375 284.152344 156.988281 284.152344 157.742188 C 284.152344 158.496094 284.765625 159.113281 285.519531 159.113281 Z M 285.519531 159.113281 " fill-opacity="1" fill-rule="nonzero"/></g><path fill="#705ce4" d="M 249.769531 163.9375 L 279.359375 163.9375 L 279.359375 164.597656 L 249.769531 164.597656 Z M 249.769531 163.9375 " fill-opacity="1" fill-rule="nonzero"/><path fill="#705ce4" d="M 279.289062 165.636719 C 280.046875 165.636719 280.660156 165.023438 280.660156 164.269531 C 280.660156 163.515625 280.046875 162.898438 279.289062 162.898438 C 278.535156 162.898438 277.921875 163.515625 277.921875 164.269531 C 277.921875 165.023438 278.535156 165.636719 279.289062 165.636719 Z M 279.289062 165.636719 " fill-opacity="1" fill-rule="nonzero"/><path fill="#705ce4" d="M 244.683594 170.117188 L 283.726562 170.117188 L 283.726562 170.777344 L 244.683594 170.777344 Z M 244.683594 170.117188 " fill-opacity="1" fill-rule="nonzero"/><path fill="#705ce4" d="M 283.65625 171.816406 C 284.414062 171.816406 285.027344 171.203125 285.027344 170.445312 C 285.027344 169.691406 284.414062 169.078125 283.65625 169.078125 C 282.902344 169.078125 282.289062 169.691406 282.289062 170.445312 C 282.289062 171.203125 282.902344 171.816406 283.65625 171.816406 Z M 283.65625 171.816406 " fill-opacity="1" fill-rule="nonzero"/><path fill="#705ce4" d="M 192.308594 203.503906 L 211.46875 184.34375 L 212.25 185.125 L 193.089844 204.285156 Z M 192.308594 203.503906 " fill-opacity="1" fill-rule="nonzero"/><path fill="#705ce4" d="M 213.394531 186.429688 C 214.285156 185.539062 214.285156 184.09375 213.394531 183.203125 C 212.503906 182.308594 211.058594 182.308594 210.167969 183.203125 C 209.273438 184.09375 209.273438 185.539062 210.167969 186.429688 C 211.058594 187.320312 212.503906 187.320312 213.394531 186.429688 Z M 213.394531 186.429688 " fill-opacity="1" fill-rule="nonzero"/><path fill="#705ce4" d="M 181.785156 194.707031 L 182.566406 193.929688 L 205.117188 216.476562 L 204.335938 217.257812 Z M 181.785156 194.707031 " fill-opacity="1" fill-rule="nonzero"/><path fill="#705ce4" d="M 203.03125 218.402344 C 203.925781 219.296875 205.367188 219.296875 206.261719 218.402344 C 207.152344 217.511719 207.152344 216.066406 206.261719 215.175781 C 205.367188 214.285156 203.925781 214.285156 203.03125 215.175781 C 202.140625 216.066406 202.140625 217.511719 203.03125 218.402344 Z M 203.03125 218.402344 " fill-opacity="1" fill-rule="nonzero"/><path fill="#705ce4" d="M 181.058594 180.957031 L 200.082031 161.933594 L 200.863281 162.714844 L 181.839844 181.738281 Z M 181.058594 180.957031 " fill-opacity="1" fill-rule="nonzero"/><path fill="#705ce4" d="M 202.007812 164.019531 C 202.898438 163.128906 202.898438 161.683594 202.007812 160.792969 C 201.117188 159.898438 199.671875 159.898438 198.78125 160.792969 C 197.886719 161.683594 197.886719 163.128906 198.78125 164.019531 C 199.671875 164.910156 201.117188 164.910156 202.007812 164.019531 Z M 202.007812 164.019531 " fill-opacity="1" fill-rule="nonzero"/><path fill="#705ce4" d="M 185.390625 189.207031 L 206.761719 167.832031 L 207.542969 168.613281 L 186.171875 189.988281 Z M 185.390625 189.207031 " fill-opacity="1" fill-rule="nonzero"/><path fill="#705ce4" d="M 208.6875 169.917969 C 209.578125 169.023438 209.578125 167.582031 208.6875 166.6875 C 207.792969 165.796875 206.351562 165.796875 205.457031 166.6875 C 204.566406 167.582031 204.566406 169.023438 205.457031 169.917969 C 206.351562 170.808594 207.792969 170.808594 208.6875 169.917969 Z M 208.6875 169.917969 " fill-opacity="1" fill-rule="nonzero"/><path fill="#705ce4" d="M 213.066406 183.921875 L 241.675781 183.921875 L 241.675781 184.585938 L 213.066406 184.585938 Z M 213.066406 183.921875 " fill-opacity="1" fill-rule="nonzero"/><path fill="#705ce4" d="M 241.605469 185.625 C 242.359375 185.625 242.972656 185.011719 242.972656 184.257812 C 242.972656 183.5 242.359375 182.886719 241.605469 182.886719 C 240.847656 182.886719 240.234375 183.5 240.234375 184.257812 C 240.234375 185.011719 240.847656 185.625 241.605469 185.625 Z M 241.605469 185.625 " fill-opacity="1" fill-rule="nonzero"/><path fill="#705ce4" d="M 206.886719 189.011719 L 221.003906 189.011719 L 221.003906 189.675781 L 206.886719 189.675781 Z M 206.886719 189.011719 " fill-opacity="1" fill-rule="nonzero"/><path fill="#705ce4" d="M 220.9375 190.710938 C 221.691406 190.710938 222.304688 190.097656 222.304688 189.34375 C 222.304688 188.589844 221.691406 187.976562 220.9375 187.976562 C 220.179688 187.976562 219.566406 188.589844 219.566406 189.34375 C 219.566406 190.097656 220.179688 190.710938 220.9375 190.710938 Z M 220.9375 190.710938 " fill-opacity="1" fill-rule="nonzero"/><path fill="#705ce4" d="M 201.4375 194.824219 L 223.933594 194.824219 L 223.933594 195.488281 L 201.4375 195.488281 Z M 201.4375 194.824219 " fill-opacity="1" fill-rule="nonzero"/><path fill="#705ce4" d="M 223.867188 196.527344 C 224.625 196.527344 225.234375 195.914062 225.234375 195.15625 C 225.234375 194.402344 224.621094 193.789062 223.867188 193.789062 C 223.109375 193.789062 222.496094 194.402344 222.496094 195.15625 C 222.496094 195.914062 223.109375 196.527344 223.867188 196.527344 Z M 223.867188 196.527344 " fill-opacity="1" fill-rule="nonzero"/><path fill="#705ce4" d="M 200.710938 161.390625 L 221.816406 161.390625 L 221.816406 162.054688 L 200.710938 162.054688 Z M 200.710938 161.390625 " fill-opacity="1" fill-rule="nonzero"/><path fill="#705ce4" d="M 221.75 163.09375 C 222.503906 163.09375 223.117188 162.480469 223.117188 161.726562 C 223.117188 160.96875 222.503906 160.355469 221.75 160.355469 C 220.992188 160.355469 220.378906 160.96875 220.378906 161.726562 C 220.378906 162.480469 220.992188 163.09375 221.75 163.09375 Z M 221.75 163.09375 " fill-opacity="1" fill-rule="nonzero"/><path fill="#705ce4" d="M 207.933594 167.238281 L 229.914062 167.238281 L 229.914062 167.902344 L 207.933594 167.902344 Z M 207.933594 167.238281 " fill-opacity="1" fill-rule="nonzero"/><path fill="#705ce4" d="M 229.847656 168.9375 C 230.605469 168.9375 231.214844 168.324219 231.214844 167.570312 C 231.214844 166.816406 230.601562 166.199219 229.847656 166.199219 C 229.09375 166.199219 228.476562 166.816406 228.476562 167.570312 C 228.476562 168.324219 229.09375 168.9375 229.847656 168.9375 Z M 229.847656 168.9375 " fill-opacity="1" fill-rule="nonzero"/><path fill="#705ce4" d="M 205.433594 218.082031 L 232.328125 218.082031 L 232.328125 218.746094 L 205.433594 218.746094 Z M 205.433594 218.082031 " fill-opacity="1" fill-rule="nonzero"/><path fill="#705ce4" d="M 218.464844 219.785156 C 219.21875 219.785156 219.832031 219.171875 219.832031 218.417969 C 219.832031 217.664062 219.21875 217.046875 218.464844 217.046875 C 217.707031 217.046875 217.09375 217.664062 217.09375 218.417969 C 217.09375 219.171875 217.707031 219.785156 218.464844 219.785156 Z M 218.464844 219.785156 " fill-opacity="1" fill-rule="nonzero"/><path fill="#705ce4" d="M 203.445312 214.8125 L 223.226562 214.8125 L 223.226562 215.476562 L 203.445312 215.476562 Z M 203.445312 214.8125 " fill-opacity="1" fill-rule="nonzero"/><path fill="#705ce4" d="M 223.15625 216.515625 C 223.914062 216.515625 224.527344 215.898438 224.527344 215.144531 C 224.527344 214.390625 223.914062 213.777344 223.15625 213.777344 C 222.402344 213.777344 221.789062 214.390625 221.789062 215.144531 C 221.789062 215.898438 222.402344 216.515625 223.15625 216.515625 Z M 223.15625 216.515625 " fill-opacity="1" fill-rule="nonzero"/><g fill="#705ce4" fill-opacity="1"><g transform="translate(125.599009, 139.334501)"><g><path d="M 13.171875 0 L 8.421875 0 L 8.421875 -9.4375 L 0.109375 -24.03125 L 5.21875 -24.03125 L 10.703125 -14.578125 L 11.109375 -14.578125 L 16.484375 -24.03125 L 21.46875 -24.03125 L 13.171875 -9.4375 Z M 13.171875 0 "/></g></g></g><g fill="#705ce4" fill-opacity="1"><g transform="translate(147.180247, 139.334501)"><g><path d="M 7.0625 0.34375 C 5.90625 0.34375 4.898438 0.128906 4.046875 -0.296875 C 3.191406 -0.722656 2.53125 -1.347656 2.0625 -2.171875 C 1.601562 -3.003906 1.375 -4 1.375 -5.15625 C 1.375 -6.238281 1.601562 -7.140625 2.0625 -7.859375 C 2.53125 -8.585938 3.242188 -9.1875 4.203125 -9.65625 C 5.171875 -10.125 6.429688 -10.484375 7.984375 -10.734375 C 9.078125 -10.910156 9.90625 -11.101562 10.46875 -11.3125 C 11.03125 -11.519531 11.410156 -11.753906 11.609375 -12.015625 C 11.804688 -12.273438 11.90625 -12.609375 11.90625 -13.015625 C 11.90625 -13.597656 11.703125 -14.039062 11.296875 -14.34375 C 10.890625 -14.65625 10.210938 -14.8125 9.265625 -14.8125 C 8.265625 -14.8125 7.304688 -14.585938 6.390625 -14.140625 C 5.484375 -13.691406 4.695312 -13.097656 4.03125 -12.359375 L 3.703125 -12.359375 L 1.796875 -15.234375 C 2.710938 -16.253906 3.832031 -17.050781 5.15625 -17.625 C 6.488281 -18.195312 7.9375 -18.484375 9.5 -18.484375 C 11.90625 -18.484375 13.644531 -17.972656 14.71875 -16.953125 C 15.789062 -15.929688 16.328125 -14.484375 16.328125 -12.609375 L 16.328125 -4.734375 C 16.328125 -3.921875 16.679688 -3.515625 17.390625 -3.515625 C 17.671875 -3.515625 17.941406 -3.566406 18.203125 -3.671875 L 18.4375 -3.59375 L 18.765625 -0.421875 C 18.503906 -0.265625 18.148438 -0.132812 17.703125 -0.03125 C 17.253906 0.0703125 16.765625 0.125 16.234375 0.125 C 15.140625 0.125 14.289062 -0.0820312 13.6875 -0.5 C 13.082031 -0.914062 12.644531 -1.566406 12.375 -2.453125 L 12.03125 -2.484375 C 11.144531 -0.597656 9.488281 0.34375 7.0625 0.34375 Z M 8.515625 -3.0625 C 9.566406 -3.0625 10.40625 -3.410156 11.03125 -4.109375 C 11.664062 -4.816406 11.984375 -5.800781 11.984375 -7.0625 L 11.984375 -8.90625 L 11.671875 -8.984375 C 11.398438 -8.753906 11.039062 -8.566406 10.59375 -8.421875 C 10.15625 -8.273438 9.519531 -8.128906 8.6875 -7.984375 C 7.695312 -7.828125 6.984375 -7.546875 6.546875 -7.140625 C 6.117188 -6.742188 5.90625 -6.175781 5.90625 -5.4375 C 5.90625 -4.664062 6.132812 -4.078125 6.59375 -3.671875 C 7.050781 -3.265625 7.691406 -3.0625 8.515625 -3.0625 Z M 8.515625 -3.0625 "/></g></g></g><g fill="#705ce4" fill-opacity="1"><g transform="translate(166.295999, 139.334501)"><g><path d="M 2.609375 0 L 2.609375 -18.140625 L 6.984375 -18.140625 L 6.984375 -15.703125 L 7.328125 -15.640625 C 7.921875 -16.609375 8.613281 -17.320312 9.40625 -17.78125 C 10.207031 -18.25 11.226562 -18.484375 12.46875 -18.484375 C 13.832031 -18.484375 14.929688 -18.210938 15.765625 -17.671875 C 16.597656 -17.128906 17.207031 -16.335938 17.59375 -15.296875 L 17.9375 -15.296875 C 18.5 -16.378906 19.21875 -17.179688 20.09375 -17.703125 C 20.976562 -18.222656 22.078125 -18.484375 23.390625 -18.484375 C 27.148438 -18.484375 29.03125 -16.390625 29.03125 -12.203125 L 29.03125 0 L 24.484375 0 L 24.484375 -11.625 C 24.484375 -12.6875 24.273438 -13.453125 23.859375 -13.921875 C 23.441406 -14.390625 22.769531 -14.625 21.84375 -14.625 C 19.351562 -14.625 18.109375 -12.957031 18.109375 -9.625 L 18.109375 0 L 13.546875 0 L 13.546875 -11.625 C 13.546875 -12.6875 13.332031 -13.453125 12.90625 -13.921875 C 12.488281 -14.390625 11.820312 -14.625 10.90625 -14.625 C 9.726562 -14.625 8.8125 -14.234375 8.15625 -13.453125 C 7.5 -12.671875 7.171875 -11.425781 7.171875 -9.71875 L 7.171875 0 Z M 2.609375 0 "/></g></g></g><g fill="#705ce4" fill-opacity="1"><g transform="translate(197.656986, 139.334501)"><g><path d="M 12.671875 0.34375 C 10.359375 0.34375 8.640625 -0.519531 7.515625 -2.25 L 7.171875 -2.1875 L 7.171875 0 L 2.609375 0 L 2.609375 -25.421875 L 7.171875 -25.421875 L 7.171875 -16 L 7.515625 -15.9375 C 8.140625 -16.800781 8.875 -17.441406 9.71875 -17.859375 C 10.570312 -18.273438 11.59375 -18.484375 12.78125 -18.484375 C 14.25 -18.484375 15.53125 -18.132812 16.625 -17.4375 C 17.71875 -16.75 18.570312 -15.703125 19.1875 -14.296875 C 19.800781 -12.890625 20.109375 -11.144531 20.109375 -9.0625 C 20.109375 -7 19.789062 -5.265625 19.15625 -3.859375 C 18.519531 -2.453125 17.640625 -1.398438 16.515625 -0.703125 C 15.398438 -0.00390625 14.117188 0.34375 12.671875 0.34375 Z M 11.296875 -3.515625 C 12.628906 -3.515625 13.644531 -3.960938 14.34375 -4.859375 C 15.050781 -5.753906 15.40625 -7.15625 15.40625 -9.0625 C 15.40625 -10.976562 15.050781 -12.378906 14.34375 -13.265625 C 13.644531 -14.160156 12.628906 -14.609375 11.296875 -14.609375 C 10.015625 -14.609375 9 -14.148438 8.25 -13.234375 C 7.5 -12.316406 7.125 -10.925781 7.125 -9.0625 C 7.125 -7.195312 7.5 -5.804688 8.25 -4.890625 C 9 -3.972656 10.015625 -3.515625 11.296875 -3.515625 Z M 11.296875 -3.515625 "/></g></g></g><g fill="#705ce4" fill-opacity="1"><g transform="translate(219.369717, 139.334501)"><g><path d="M 7.53125 0.34375 C 5.894531 0.34375 4.644531 -0.09375 3.78125 -0.96875 C 2.925781 -1.851562 2.5 -3.195312 2.5 -5 L 2.5 -25.421875 L 7.046875 -25.421875 L 7.046875 -5.171875 C 7.046875 -4.066406 7.507812 -3.515625 8.4375 -3.515625 C 8.695312 -3.515625 8.972656 -3.5625 9.265625 -3.65625 L 9.5 -3.578125 L 9.921875 -0.078125 C 9.660156 0.046875 9.320312 0.144531 8.90625 0.21875 C 8.488281 0.300781 8.03125 0.34375 7.53125 0.34375 Z M 7.53125 0.34375 "/></g></g></g><g fill="#705ce4" fill-opacity="1"><g transform="translate(229.790506, 139.334501)"><g><path d="M 17.921875 -8.046875 L 6.265625 -8.046875 C 6.398438 -6.460938 6.847656 -5.3125 7.609375 -4.59375 C 8.378906 -3.875 9.425781 -3.515625 10.75 -3.515625 C 11.789062 -3.515625 12.632812 -3.707031 13.28125 -4.09375 C 13.925781 -4.488281 14.445312 -5.082031 14.84375 -5.875 L 15.1875 -5.875 L 18.21875 -3.921875 C 17.625 -2.648438 16.726562 -1.617188 15.53125 -0.828125 C 14.34375 -0.046875 12.75 0.34375 10.75 0.34375 C 8.875 0.34375 7.253906 -0.0078125 5.890625 -0.71875 C 4.523438 -1.4375 3.472656 -2.5 2.734375 -3.90625 C 1.992188 -5.3125 1.625 -7.03125 1.625 -9.0625 C 1.625 -11.125 2.015625 -12.859375 2.796875 -14.265625 C 3.578125 -15.679688 4.628906 -16.738281 5.953125 -17.4375 C 7.273438 -18.132812 8.765625 -18.484375 10.421875 -18.484375 C 12.984375 -18.484375 14.945312 -17.800781 16.3125 -16.4375 C 17.675781 -15.082031 18.359375 -13.085938 18.359375 -10.453125 C 18.359375 -9.503906 18.328125 -8.765625 18.265625 -8.234375 Z M 14.015625 -10.984375 C 13.960938 -12.359375 13.640625 -13.359375 13.046875 -13.984375 C 12.453125 -14.617188 11.578125 -14.9375 10.421875 -14.9375 C 8.117188 -14.9375 6.765625 -13.617188 6.359375 -10.984375 Z M 14.015625 -10.984375 "/></g></g></g></svg>