<svg xmlns="http://www.w3.org/2000/svg" xmlns:xlink="http://www.w3.org/1999/xlink" width="500" zoomAndPan="magnify" viewBox="0 0 375 374.999991" height="500" preserveAspectRatio="xMidYMid meet" version="1.0"><defs><g/><clipPath id="3f44bb674b"><path d="M 187.5 0 C 83.945312 0 0 83.945312 0 187.5 C 0 291.054688 83.945312 375 187.5 375 C 291.054688 375 375 291.054688 375 187.5 C 375 83.945312 291.054688 0 187.5 0 Z M 187.5 0 " clip-rule="nonzero"/></clipPath><clipPath id="556e0ce0f3"><path d="M 28.695312 28.695312 L 346.304688 28.695312 L 346.304688 346.304688 L 28.695312 346.304688 Z M 28.695312 28.695312 " clip-rule="nonzero"/></clipPath><clipPath id="1f8d6c5046"><path d="M 103.351562 172 L 139 172 L 139 208 L 103.351562 208 Z M 103.351562 172 " clip-rule="nonzero"/></clipPath><clipPath id="c869f19ab6"><path d="M 242 161.132812 L 247 161.132812 L 247 166 L 242 166 Z M 242 161.132812 " clip-rule="nonzero"/></clipPath><clipPath id="a630f00d9f"><path d="M 269 161.132812 L 271.683594 161.132812 L 271.683594 164 L 269 164 Z M 269 161.132812 " clip-rule="nonzero"/></clipPath></defs><g clip-path="url(#3f44bb674b)"><rect x="-37.5" width="450" fill="#ffffff" y="-37.499999" height="449.999989" fill-opacity="1"/></g><g clip-path="url(#556e0ce0f3)"><path fill="#705ce4" d="M 271.6875 207.472656 C 271.6875 221.226562 260.429688 232.484375 246.671875 232.484375 L 237.6875 272.644531 L 190.683594 232.484375 L 128.382812 232.484375 C 114.625 232.484375 103.371094 221.226562 103.371094 207.472656 L 103.371094 137.3125 C 103.371094 123.554688 114.625 112.296875 128.382812 112.296875 L 246.671875 112.296875 C 260.429688 112.296875 271.6875 123.554688 271.6875 137.3125 Z M 187.527344 28.707031 C 99.816406 28.707031 28.707031 99.816406 28.707031 187.527344 C 28.707031 275.242188 99.816406 346.347656 187.527344 346.347656 C 275.242188 346.347656 346.347656 275.242188 346.347656 187.527344 C 346.347656 99.816406 275.242188 28.707031 187.527344 28.707031 " fill-opacity="1" fill-rule="nonzero"/></g><g clip-path="url(#1f8d6c5046)"><path fill="#705ce4" d="M 120.851562 207.230469 C 111.257812 207.230469 103.449219 199.425781 103.449219 189.832031 C 103.449219 180.234375 111.257812 172.429688 120.851562 172.429688 C 130.445312 172.429688 138.253906 180.234375 138.253906 189.832031 C 138.253906 199.425781 130.445312 207.230469 120.851562 207.230469 Z M 120.851562 174.296875 C 112.289062 174.296875 105.320312 181.265625 105.320312 189.832031 C 105.320312 198.394531 112.289062 205.363281 120.851562 205.363281 C 129.417969 205.363281 136.382812 198.394531 136.382812 189.832031 C 136.382812 181.265625 129.417969 174.296875 120.851562 174.296875 Z M 120.851562 174.296875 " fill-opacity="1" fill-rule="nonzero"/></g><path fill="#705ce4" d="M 136.085938 181.421875 L 180.730469 181.421875 L 180.730469 182.542969 L 136.085938 182.542969 Z M 136.085938 181.421875 " fill-opacity="1" fill-rule="nonzero"/><path fill="#705ce4" d="M 180.617188 184.300781 C 181.898438 184.300781 182.9375 183.261719 182.9375 181.980469 C 182.9375 180.699219 181.898438 179.660156 180.617188 179.660156 C 179.335938 179.660156 178.296875 180.699219 178.296875 181.980469 C 178.296875 183.261719 179.335938 184.300781 180.617188 184.300781 Z M 180.617188 184.300781 " fill-opacity="1" fill-rule="nonzero"/><path fill="#705ce4" d="M 136.917969 192.808594 L 181.417969 192.808594 L 181.417969 193.929688 L 136.917969 193.929688 Z M 136.917969 192.808594 " fill-opacity="1" fill-rule="nonzero"/><path fill="#705ce4" d="M 181.300781 195.691406 C 182.582031 195.691406 183.621094 194.652344 183.621094 193.371094 C 183.621094 192.089844 182.582031 191.050781 181.300781 191.050781 C 180.019531 191.050781 178.980469 192.089844 178.980469 193.371094 C 178.980469 194.652344 180.019531 195.691406 181.300781 195.691406 Z M 181.300781 195.691406 " fill-opacity="1" fill-rule="nonzero"/><path fill="#705ce4" d="M 136.984375 188.5 L 184.550781 188.5 L 184.550781 189.621094 L 136.984375 189.621094 Z M 136.984375 188.5 " fill-opacity="1" fill-rule="nonzero"/><path fill="#705ce4" d="M 184.433594 191.378906 C 185.714844 191.378906 186.753906 190.339844 186.753906 189.058594 C 186.753906 187.777344 185.714844 186.738281 184.433594 186.738281 C 183.152344 186.738281 182.113281 187.777344 182.113281 189.058594 C 182.113281 190.339844 183.152344 191.378906 184.433594 191.378906 Z M 184.433594 191.378906 " fill-opacity="1" fill-rule="nonzero"/><path fill="#705ce4" d="M 132.605469 200.503906 L 190.449219 200.503906 L 190.449219 201.625 L 132.605469 201.625 Z M 132.605469 200.503906 " fill-opacity="1" fill-rule="nonzero"/><path fill="#705ce4" d="M 190.335938 203.386719 C 191.617188 203.386719 192.65625 202.347656 192.65625 201.066406 C 192.65625 199.785156 191.617188 198.746094 190.335938 198.746094 C 189.054688 198.746094 188.015625 199.785156 188.015625 201.066406 C 188.015625 202.347656 189.054688 203.386719 190.335938 203.386719 Z M 190.335938 203.386719 " fill-opacity="1" fill-rule="nonzero"/><path fill="#705ce4" d="M 131.164062 177.417969 L 228.378906 177.417969 L 228.378906 178.542969 L 131.164062 178.542969 Z M 131.164062 177.417969 " fill-opacity="1" fill-rule="nonzero"/><path fill="#705ce4" d="M 228.261719 180.300781 C 229.542969 180.300781 230.585938 179.261719 230.585938 177.980469 C 230.585938 176.699219 229.542969 175.660156 228.261719 175.660156 C 226.984375 175.660156 225.941406 176.699219 225.941406 177.980469 C 225.941406 179.261719 226.984375 180.300781 228.261719 180.300781 Z M 228.261719 180.300781 " fill-opacity="1" fill-rule="nonzero"/><path fill="#705ce4" d="M 229.242188 178.171875 L 244.410156 163.003906 L 245.074219 163.664062 L 229.902344 178.832031 Z M 229.242188 178.171875 " fill-opacity="1" fill-rule="nonzero"/><g clip-path="url(#c869f19ab6)"><path fill="#705ce4" d="M 246.042969 164.769531 C 246.796875 164.011719 246.796875 162.789062 246.042969 162.035156 C 245.285156 161.28125 244.0625 161.28125 243.308594 162.035156 C 242.550781 162.789062 242.550781 164.011719 243.308594 164.769531 C 244.0625 165.523438 245.285156 165.523438 246.042969 164.769531 Z M 246.042969 164.769531 " fill-opacity="1" fill-rule="nonzero"/></g><path fill="#705ce4" d="M 245.257812 162.015625 L 270.578125 162.015625 L 270.578125 162.578125 L 245.257812 162.578125 Z M 245.257812 162.015625 " fill-opacity="1" fill-rule="nonzero"/><g clip-path="url(#a630f00d9f)"><path fill="#705ce4" d="M 270.519531 163.457031 C 271.160156 163.457031 271.679688 162.9375 271.679688 162.296875 C 271.679688 161.65625 271.160156 161.136719 270.519531 161.136719 C 269.878906 161.136719 269.359375 161.65625 269.359375 162.296875 C 269.359375 162.9375 269.878906 163.457031 270.519531 163.457031 Z M 270.519531 163.457031 " fill-opacity="1" fill-rule="nonzero"/></g><path fill="#705ce4" d="M 240.242188 167.542969 L 265.300781 167.542969 L 265.300781 168.101562 L 240.242188 168.101562 Z M 240.242188 167.542969 " fill-opacity="1" fill-rule="nonzero"/><path fill="#705ce4" d="M 265.242188 168.984375 C 265.882812 168.984375 266.402344 168.464844 266.402344 167.824219 C 266.402344 167.183594 265.882812 166.664062 265.242188 166.664062 C 264.601562 166.664062 264.082031 167.183594 264.082031 167.824219 C 264.082031 168.464844 264.601562 168.984375 265.242188 168.984375 Z M 265.242188 168.984375 " fill-opacity="1" fill-rule="nonzero"/><path fill="#705ce4" d="M 235.929688 172.777344 L 269 172.777344 L 269 173.335938 L 235.929688 173.335938 Z M 235.929688 172.777344 " fill-opacity="1" fill-rule="nonzero"/><path fill="#705ce4" d="M 268.941406 174.214844 C 269.582031 174.214844 270.101562 173.695312 270.101562 173.058594 C 270.101562 172.417969 269.582031 171.898438 268.941406 171.898438 C 268.300781 171.898438 267.78125 172.417969 267.78125 173.058594 C 267.78125 173.695312 268.300781 174.214844 268.941406 174.214844 Z M 268.941406 174.214844 " fill-opacity="1" fill-rule="nonzero"/><path fill="#705ce4" d="M 191.574219 201.054688 L 207.800781 184.828125 L 208.460938 185.488281 L 192.234375 201.714844 Z M 191.574219 201.054688 " fill-opacity="1" fill-rule="nonzero"/><path fill="#705ce4" d="M 209.429688 186.59375 C 210.1875 185.839844 210.1875 184.613281 209.429688 183.859375 C 208.675781 183.105469 207.453125 183.105469 206.695312 183.859375 C 205.941406 184.613281 205.941406 185.839844 206.695312 186.59375 C 207.453125 187.347656 208.675781 187.347656 209.429688 186.59375 Z M 209.429688 186.59375 " fill-opacity="1" fill-rule="nonzero"/><path fill="#705ce4" d="M 182.660156 193.605469 L 183.320312 192.945312 L 202.417969 212.042969 L 201.757812 212.703125 Z M 182.660156 193.605469 " fill-opacity="1" fill-rule="nonzero"/><path fill="#705ce4" d="M 200.65625 213.675781 C 201.410156 214.429688 202.632812 214.429688 203.390625 213.675781 C 204.144531 212.917969 204.144531 211.695312 203.390625 210.941406 C 202.632812 210.183594 201.410156 210.183594 200.65625 210.941406 C 199.898438 211.695312 199.898438 212.917969 200.65625 213.675781 Z M 200.65625 213.675781 " fill-opacity="1" fill-rule="nonzero"/><path fill="#705ce4" d="M 182.042969 181.957031 L 198.15625 165.847656 L 198.816406 166.507812 L 182.707031 182.621094 Z M 182.042969 181.957031 " fill-opacity="1" fill-rule="nonzero"/><path fill="#705ce4" d="M 199.789062 167.613281 C 200.542969 166.859375 200.542969 165.632812 199.789062 164.878906 C 199.03125 164.125 197.808594 164.125 197.054688 164.878906 C 196.296875 165.632812 196.296875 166.859375 197.054688 167.613281 C 197.808594 168.367188 199.03125 168.367188 199.789062 167.613281 Z M 199.789062 167.613281 " fill-opacity="1" fill-rule="nonzero"/><path fill="#705ce4" d="M 185.710938 188.945312 L 203.816406 170.84375 L 204.476562 171.503906 L 186.375 189.605469 Z M 185.710938 188.945312 " fill-opacity="1" fill-rule="nonzero"/><path fill="#705ce4" d="M 205.445312 172.609375 C 206.199219 171.851562 206.199219 170.628906 205.445312 169.875 C 204.6875 169.117188 203.464844 169.117188 202.710938 169.875 C 201.953125 170.628906 201.953125 171.851562 202.710938 172.609375 C 203.464844 173.363281 204.6875 173.363281 205.445312 172.609375 Z M 205.445312 172.609375 " fill-opacity="1" fill-rule="nonzero"/><path fill="#705ce4" d="M 209.152344 184.472656 L 233.382812 184.472656 L 233.382812 185.03125 L 209.152344 185.03125 Z M 209.152344 184.472656 " fill-opacity="1" fill-rule="nonzero"/><path fill="#705ce4" d="M 233.324219 185.914062 C 233.964844 185.914062 234.484375 185.394531 234.484375 184.753906 C 234.484375 184.113281 233.964844 183.59375 233.324219 183.59375 C 232.683594 183.59375 232.164062 184.113281 232.164062 184.753906 C 232.164062 185.394531 232.683594 185.914062 233.324219 185.914062 Z M 233.324219 185.914062 " fill-opacity="1" fill-rule="nonzero"/><path fill="#705ce4" d="M 203.921875 188.78125 L 215.875 188.78125 L 215.875 189.34375 L 203.921875 189.34375 Z M 203.921875 188.78125 " fill-opacity="1" fill-rule="nonzero"/><path fill="#705ce4" d="M 215.820312 190.222656 C 216.460938 190.222656 216.976562 189.703125 216.976562 189.0625 C 216.976562 188.421875 216.457031 187.902344 215.820312 187.902344 C 215.179688 187.902344 214.660156 188.421875 214.660156 189.0625 C 214.660156 189.703125 215.179688 190.222656 215.820312 190.222656 Z M 215.820312 190.222656 " fill-opacity="1" fill-rule="nonzero"/><path fill="#705ce4" d="M 199.304688 193.703125 L 218.359375 193.703125 L 218.359375 194.265625 L 199.304688 194.265625 Z M 199.304688 193.703125 " fill-opacity="1" fill-rule="nonzero"/><path fill="#705ce4" d="M 218.300781 195.144531 C 218.941406 195.144531 219.460938 194.625 219.460938 193.984375 C 219.460938 193.347656 218.941406 192.824219 218.300781 192.824219 C 217.660156 192.824219 217.140625 193.347656 217.140625 193.984375 C 217.140625 194.625 217.660156 195.144531 218.300781 195.144531 Z M 218.300781 195.144531 " fill-opacity="1" fill-rule="nonzero"/><path fill="#705ce4" d="M 198.6875 165.386719 L 216.566406 165.386719 L 216.566406 165.949219 L 198.6875 165.949219 Z M 198.6875 165.386719 " fill-opacity="1" fill-rule="nonzero"/><path fill="#705ce4" d="M 216.507812 166.828125 C 217.148438 166.828125 217.667969 166.308594 217.667969 165.671875 C 217.667969 165.03125 217.148438 164.511719 216.507812 164.511719 C 215.867188 164.511719 215.347656 165.03125 215.347656 165.671875 C 215.347656 166.308594 215.867188 166.828125 216.507812 166.828125 Z M 216.507812 166.828125 " fill-opacity="1" fill-rule="nonzero"/><path fill="#705ce4" d="M 204.804688 170.339844 L 223.425781 170.339844 L 223.425781 170.902344 L 204.804688 170.902344 Z M 204.804688 170.339844 " fill-opacity="1" fill-rule="nonzero"/><path fill="#705ce4" d="M 223.367188 171.78125 C 224.007812 171.78125 224.527344 171.257812 224.527344 170.621094 C 224.527344 169.980469 224.003906 169.460938 223.367188 169.460938 C 222.726562 169.460938 222.207031 169.980469 222.207031 170.621094 C 222.207031 171.257812 222.726562 171.78125 223.367188 171.78125 Z M 223.367188 171.78125 " fill-opacity="1" fill-rule="nonzero"/><path fill="#705ce4" d="M 202.691406 213.402344 L 225.46875 213.402344 L 225.46875 213.964844 L 202.691406 213.964844 Z M 202.691406 213.402344 " fill-opacity="1" fill-rule="nonzero"/><path fill="#705ce4" d="M 213.722656 214.84375 C 214.367188 214.84375 214.882812 214.324219 214.882812 213.683594 C 214.882812 213.046875 214.363281 212.527344 213.722656 212.527344 C 213.085938 212.527344 212.566406 213.046875 212.566406 213.683594 C 212.566406 214.324219 213.085938 214.84375 213.722656 214.84375 Z M 213.722656 214.84375 " fill-opacity="1" fill-rule="nonzero"/><path fill="#705ce4" d="M 201.003906 210.632812 L 217.757812 210.632812 L 217.757812 211.195312 L 201.003906 211.195312 Z M 201.003906 210.632812 " fill-opacity="1" fill-rule="nonzero"/><path fill="#705ce4" d="M 217.699219 212.074219 C 218.339844 212.074219 218.859375 211.554688 218.859375 210.914062 C 218.859375 210.273438 218.339844 209.753906 217.699219 209.753906 C 217.058594 209.753906 216.539062 210.273438 216.539062 210.914062 C 216.539062 211.554688 217.058594 212.074219 217.699219 212.074219 Z M 217.699219 212.074219 " fill-opacity="1" fill-rule="nonzero"/><g fill="#705ce4" fill-opacity="1"><g transform="translate(135.072622, 146.705954)"><g><path d="M 11.15625 0 L 7.125 0 L 7.125 -7.984375 L 0.09375 -20.359375 L 4.40625 -20.359375 L 9.0625 -12.34375 L 9.40625 -12.34375 L 13.96875 -20.359375 L 18.1875 -20.359375 L 11.15625 -7.984375 Z M 11.15625 0 "/></g></g></g><g fill="#705ce4" fill-opacity="1"><g transform="translate(153.350968, 146.705954)"><g><path d="M 5.984375 0.296875 C 5.003906 0.296875 4.148438 0.113281 3.421875 -0.25 C 2.703125 -0.613281 2.144531 -1.144531 1.75 -1.84375 C 1.363281 -2.539062 1.171875 -3.382812 1.171875 -4.375 C 1.171875 -5.28125 1.363281 -6.039062 1.75 -6.65625 C 2.144531 -7.28125 2.75 -7.785156 3.5625 -8.171875 C 4.382812 -8.566406 5.453125 -8.875 6.765625 -9.09375 C 7.679688 -9.238281 8.378906 -9.398438 8.859375 -9.578125 C 9.335938 -9.753906 9.660156 -9.953125 9.828125 -10.171875 C 9.992188 -10.398438 10.078125 -10.6875 10.078125 -11.03125 C 10.078125 -11.519531 9.90625 -11.894531 9.5625 -12.15625 C 9.21875 -12.414062 8.648438 -12.546875 7.859375 -12.546875 C 7.003906 -12.546875 6.191406 -12.351562 5.421875 -11.96875 C 4.648438 -11.59375 3.976562 -11.09375 3.40625 -10.46875 L 3.140625 -10.46875 L 1.515625 -12.90625 C 2.296875 -13.769531 3.25 -14.441406 4.375 -14.921875 C 5.5 -15.410156 6.722656 -15.65625 8.046875 -15.65625 C 10.078125 -15.65625 11.546875 -15.222656 12.453125 -14.359375 C 13.367188 -13.492188 13.828125 -12.265625 13.828125 -10.671875 L 13.828125 -4.015625 C 13.828125 -3.328125 14.128906 -2.984375 14.734375 -2.984375 C 14.960938 -2.984375 15.1875 -3.023438 15.40625 -3.109375 L 15.609375 -3.046875 L 15.890625 -0.359375 C 15.671875 -0.222656 15.367188 -0.109375 14.984375 -0.015625 C 14.609375 0.0664062 14.195312 0.109375 13.75 0.109375 C 12.820312 0.109375 12.097656 -0.0664062 11.578125 -0.421875 C 11.066406 -0.773438 10.703125 -1.328125 10.484375 -2.078125 L 10.1875 -2.109375 C 9.4375 -0.503906 8.035156 0.296875 5.984375 0.296875 Z M 7.21875 -2.59375 C 8.101562 -2.59375 8.8125 -2.890625 9.34375 -3.484375 C 9.882812 -4.085938 10.15625 -4.921875 10.15625 -5.984375 L 10.15625 -7.546875 L 9.890625 -7.609375 C 9.648438 -7.421875 9.34375 -7.265625 8.96875 -7.140625 C 8.59375 -7.015625 8.054688 -6.890625 7.359375 -6.765625 C 6.515625 -6.628906 5.910156 -6.390625 5.546875 -6.046875 C 5.179688 -5.710938 5 -5.234375 5 -4.609375 C 5 -3.953125 5.191406 -3.453125 5.578125 -3.109375 C 5.972656 -2.765625 6.519531 -2.59375 7.21875 -2.59375 Z M 7.21875 -2.59375 "/></g></g></g><g fill="#705ce4" fill-opacity="1"><g transform="translate(169.541157, 146.705954)"><g><path d="M 2.21875 0 L 2.21875 -15.359375 L 5.921875 -15.359375 L 5.921875 -13.296875 L 6.203125 -13.234375 C 6.710938 -14.066406 7.300781 -14.675781 7.96875 -15.0625 C 8.644531 -15.457031 9.503906 -15.65625 10.546875 -15.65625 C 11.710938 -15.65625 12.644531 -15.421875 13.34375 -14.953125 C 14.050781 -14.492188 14.566406 -13.828125 14.890625 -12.953125 L 15.1875 -12.953125 C 15.664062 -13.867188 16.273438 -14.546875 17.015625 -14.984375 C 17.765625 -15.429688 18.695312 -15.65625 19.8125 -15.65625 C 23 -15.65625 24.59375 -13.878906 24.59375 -10.328125 L 24.59375 0 L 20.734375 0 L 20.734375 -9.84375 C 20.734375 -10.738281 20.554688 -11.382812 20.203125 -11.78125 C 19.847656 -12.1875 19.28125 -12.390625 18.5 -12.390625 C 16.382812 -12.390625 15.328125 -10.972656 15.328125 -8.140625 L 15.328125 0 L 11.46875 0 L 11.46875 -9.84375 C 11.46875 -10.738281 11.289062 -11.382812 10.9375 -11.78125 C 10.582031 -12.1875 10.015625 -12.390625 9.234375 -12.390625 C 8.234375 -12.390625 7.457031 -12.054688 6.90625 -11.390625 C 6.351562 -10.734375 6.078125 -9.679688 6.078125 -8.234375 L 6.078125 0 Z M 2.21875 0 "/></g></g></g><g fill="#705ce4" fill-opacity="1"><g transform="translate(196.102513, 146.705954)"><g><path d="M 10.734375 0.296875 C 8.773438 0.296875 7.316406 -0.4375 6.359375 -1.90625 L 6.078125 -1.859375 L 6.078125 0 L 2.21875 0 L 2.21875 -21.53125 L 6.078125 -21.53125 L 6.078125 -13.546875 L 6.359375 -13.484375 C 6.890625 -14.222656 7.515625 -14.769531 8.234375 -15.125 C 8.953125 -15.476562 9.8125 -15.65625 10.8125 -15.65625 C 12.0625 -15.65625 13.148438 -15.359375 14.078125 -14.765625 C 15.003906 -14.179688 15.726562 -13.289062 16.25 -12.09375 C 16.769531 -10.90625 17.03125 -9.429688 17.03125 -7.671875 C 17.03125 -5.921875 16.757812 -4.445312 16.21875 -3.25 C 15.675781 -2.0625 14.929688 -1.171875 13.984375 -0.578125 C 13.046875 0.00390625 11.960938 0.296875 10.734375 0.296875 Z M 9.5625 -2.984375 C 10.695312 -2.984375 11.5625 -3.359375 12.15625 -4.109375 C 12.75 -4.867188 13.046875 -6.054688 13.046875 -7.671875 C 13.046875 -9.296875 12.75 -10.484375 12.15625 -11.234375 C 11.5625 -11.992188 10.695312 -12.375 9.5625 -12.375 C 8.476562 -12.375 7.617188 -11.984375 6.984375 -11.203125 C 6.347656 -10.421875 6.03125 -9.242188 6.03125 -7.671875 C 6.03125 -6.097656 6.347656 -4.921875 6.984375 -4.140625 C 7.617188 -3.367188 8.476562 -2.984375 9.5625 -2.984375 Z M 9.5625 -2.984375 "/></g></g></g><g fill="#705ce4" fill-opacity="1"><g transform="translate(214.492227, 146.705954)"><g><path d="M 6.375 0.296875 C 4.988281 0.296875 3.929688 -0.078125 3.203125 -0.828125 C 2.472656 -1.578125 2.109375 -2.710938 2.109375 -4.234375 L 2.109375 -21.53125 L 5.96875 -21.53125 L 5.96875 -4.390625 C 5.96875 -3.453125 6.359375 -2.984375 7.140625 -2.984375 C 7.367188 -2.984375 7.609375 -3.019531 7.859375 -3.09375 L 8.046875 -3.03125 L 8.390625 -0.0625 C 8.179688 0.0390625 7.898438 0.125 7.546875 0.1875 C 7.191406 0.257812 6.800781 0.296875 6.375 0.296875 Z M 6.375 0.296875 "/></g></g></g><g fill="#705ce4" fill-opacity="1"><g transform="translate(223.318171, 146.705954)"><g><path d="M 15.171875 -6.8125 L 5.3125 -6.8125 C 5.414062 -5.46875 5.789062 -4.492188 6.4375 -3.890625 C 7.09375 -3.285156 7.984375 -2.984375 9.109375 -2.984375 C 9.984375 -2.984375 10.695312 -3.144531 11.25 -3.46875 C 11.800781 -3.800781 12.242188 -4.300781 12.578125 -4.96875 L 12.859375 -4.96875 L 15.421875 -3.328125 C 14.921875 -2.253906 14.164062 -1.378906 13.15625 -0.703125 C 12.144531 -0.0351562 10.796875 0.296875 9.109375 0.296875 C 7.515625 0.296875 6.140625 -0.00390625 4.984375 -0.609375 C 3.835938 -1.210938 2.945312 -2.109375 2.3125 -3.296875 C 1.6875 -4.492188 1.375 -5.953125 1.375 -7.671875 C 1.375 -9.421875 1.703125 -10.890625 2.359375 -12.078125 C 3.023438 -13.273438 3.914062 -14.171875 5.03125 -14.765625 C 6.15625 -15.359375 7.421875 -15.65625 8.828125 -15.65625 C 10.992188 -15.65625 12.65625 -15.078125 13.8125 -13.921875 C 14.96875 -12.773438 15.546875 -11.085938 15.546875 -8.859375 C 15.546875 -8.046875 15.519531 -7.414062 15.46875 -6.96875 Z M 11.859375 -9.296875 C 11.828125 -10.472656 11.554688 -11.328125 11.046875 -11.859375 C 10.546875 -12.390625 9.804688 -12.65625 8.828125 -12.65625 C 6.878906 -12.65625 5.734375 -11.535156 5.390625 -9.296875 Z M 11.859375 -9.296875 "/></g></g></g></svg>