<svg xmlns="http://www.w3.org/2000/svg" xmlns:xlink="http://www.w3.org/1999/xlink" width="500" zoomAndPan="magnify" viewBox="0 0 375 374.999991" height="500" preserveAspectRatio="xMidYMid meet" version="1.0"><defs><g/><clipPath id="ec7b7dcb30"><path d="M 89.871094 169 L 131 169 L 131 210 L 89.871094 210 Z M 89.871094 169 " clip-rule="nonzero"/></clipPath><clipPath id="258bbdbce7"><path d="M 251 156.367188 L 256 156.367188 L 256 162 L 251 162 Z M 251 156.367188 " clip-rule="nonzero"/></clipPath><clipPath id="c8ffb8c8a4"><path d="M 282 156.367188 L 284.871094 156.367188 L 284.871094 160 L 282 160 Z M 282 156.367188 " clip-rule="nonzero"/></clipPath><clipPath id="8b204fe732"><path d="M 216 215 L 220 215 L 220 218.617188 L 216 218.617188 Z M 216 215 " clip-rule="nonzero"/></clipPath></defs><path fill="#bbdefb" d="M 286.898438 211.082031 C 286.898438 227.320312 273.609375 240.613281 257.367188 240.613281 L 246.753906 288.03125 L 191.257812 240.613281 L 117.703125 240.613281 C 101.457031 240.613281 88.167969 227.320312 88.167969 211.082031 L 88.167969 128.242188 C 88.167969 112 101.457031 98.707031 117.703125 98.707031 L 257.367188 98.707031 C 273.609375 98.707031 286.898438 112 286.898438 128.242188 Z M 187.535156 0.0117188 C 83.96875 0.0117188 0.0117188 83.96875 0.0117188 187.535156 C 0.0117188 291.097656 83.96875 375.050781 187.535156 375.050781 C 291.097656 375.050781 375.050781 291.097656 375.050781 187.535156 C 375.050781 83.96875 291.097656 0.0117188 187.535156 0.0117188 " fill-opacity="1" fill-rule="nonzero"/><g clip-path="url(#ec7b7dcb30)"><path fill="#bbdefb" d="M 110.164062 209.8125 C 99.039062 209.8125 89.988281 200.761719 89.988281 189.636719 C 89.988281 178.515625 99.039062 169.464844 110.164062 169.464844 C 121.285156 169.464844 130.335938 178.515625 130.335938 189.636719 C 130.335938 200.761719 121.285156 209.8125 110.164062 209.8125 Z M 110.164062 171.632812 C 100.234375 171.632812 92.15625 179.707031 92.15625 189.636719 C 92.15625 199.566406 100.234375 207.644531 110.164062 207.644531 C 120.089844 207.644531 128.167969 199.566406 128.167969 189.636719 C 128.167969 179.707031 120.089844 171.632812 110.164062 171.632812 Z M 110.164062 171.632812 " fill-opacity="1" fill-rule="nonzero"/></g><path fill="#bbdefb" d="M 127.824219 179.890625 L 179.582031 179.890625 L 179.582031 181.1875 L 127.824219 181.1875 Z M 127.824219 179.890625 " fill-opacity="1" fill-rule="nonzero"/><path fill="#bbdefb" d="M 179.449219 183.230469 C 180.933594 183.230469 182.136719 182.023438 182.136719 180.539062 C 182.136719 179.054688 180.933594 177.847656 179.449219 177.847656 C 177.964844 177.847656 176.757812 179.054688 176.757812 180.539062 C 176.757812 182.023438 177.964844 183.230469 179.449219 183.230469 Z M 179.449219 183.230469 " fill-opacity="1" fill-rule="nonzero"/><path fill="#bbdefb" d="M 128.785156 193.089844 L 180.378906 193.089844 L 180.378906 194.390625 L 128.785156 194.390625 Z M 128.785156 193.089844 " fill-opacity="1" fill-rule="nonzero"/><path fill="#bbdefb" d="M 180.242188 196.433594 C 181.726562 196.433594 182.933594 195.226562 182.933594 193.742188 C 182.933594 192.257812 181.726562 191.050781 180.242188 191.050781 C 178.757812 191.050781 177.550781 192.257812 177.550781 193.742188 C 177.550781 195.226562 178.757812 196.433594 180.242188 196.433594 Z M 180.242188 196.433594 " fill-opacity="1" fill-rule="nonzero"/><path fill="#bbdefb" d="M 128.863281 188.097656 L 184.007812 188.097656 L 184.007812 189.398438 L 128.863281 189.398438 Z M 128.863281 188.097656 " fill-opacity="1" fill-rule="nonzero"/><path fill="#bbdefb" d="M 183.871094 191.433594 C 185.359375 191.433594 186.5625 190.230469 186.5625 188.746094 C 186.5625 187.257812 185.359375 186.054688 183.871094 186.054688 C 182.386719 186.054688 181.183594 187.257812 181.183594 188.746094 C 181.183594 190.230469 182.386719 191.433594 183.871094 191.433594 Z M 183.871094 191.433594 " fill-opacity="1" fill-rule="nonzero"/><path fill="#bbdefb" d="M 123.789062 202.011719 L 190.847656 202.011719 L 190.847656 203.3125 L 123.789062 203.3125 Z M 123.789062 202.011719 " fill-opacity="1" fill-rule="nonzero"/><path fill="#bbdefb" d="M 190.714844 205.351562 C 192.199219 205.351562 193.40625 204.148438 193.40625 202.664062 C 193.40625 201.175781 192.199219 199.972656 190.714844 199.972656 C 189.230469 199.972656 188.023438 201.175781 188.023438 202.664062 C 188.023438 204.148438 189.230469 205.351562 190.714844 205.351562 Z M 190.714844 205.351562 " fill-opacity="1" fill-rule="nonzero"/><path fill="#bbdefb" d="M 122.117188 175.25 L 234.820312 175.25 L 234.820312 176.550781 L 122.117188 176.550781 Z M 122.117188 175.25 " fill-opacity="1" fill-rule="nonzero"/><path fill="#bbdefb" d="M 234.6875 178.589844 C 236.171875 178.589844 237.375 177.386719 237.375 175.898438 C 237.375 174.414062 236.171875 173.210938 234.6875 173.210938 C 233.199219 173.210938 231.996094 174.414062 231.996094 175.898438 C 231.996094 177.386719 233.199219 178.589844 234.6875 178.589844 Z M 234.6875 178.589844 " fill-opacity="1" fill-rule="nonzero"/><path fill="#bbdefb" d="M 235.820312 176.121094 L 253.40625 158.535156 L 254.171875 159.300781 L 236.585938 176.886719 Z M 235.820312 176.121094 " fill-opacity="1" fill-rule="nonzero"/><g clip-path="url(#258bbdbce7)"><path fill="#bbdefb" d="M 255.296875 160.582031 C 256.171875 159.707031 256.171875 158.289062 255.296875 157.414062 C 254.421875 156.539062 253.003906 156.539062 252.125 157.414062 C 251.25 158.289062 251.25 159.707031 252.125 160.582031 C 253.003906 161.460938 254.421875 161.460938 255.296875 160.582031 Z M 255.296875 160.582031 " fill-opacity="1" fill-rule="nonzero"/></g><path fill="#bbdefb" d="M 254.386719 157.390625 L 283.742188 157.390625 L 283.742188 158.042969 L 254.386719 158.042969 Z M 254.386719 157.390625 " fill-opacity="1" fill-rule="nonzero"/><g clip-path="url(#c8ffb8c8a4)"><path fill="#bbdefb" d="M 283.671875 159.0625 C 284.417969 159.0625 285.019531 158.460938 285.019531 157.71875 C 285.019531 156.976562 284.414062 156.375 283.671875 156.375 C 282.933594 156.375 282.328125 156.976562 282.328125 157.71875 C 282.328125 158.460938 282.933594 159.0625 283.671875 159.0625 Z M 283.671875 159.0625 " fill-opacity="1" fill-rule="nonzero"/></g><path fill="#bbdefb" d="M 248.570312 163.796875 L 277.625 163.796875 L 277.625 164.449219 L 248.570312 164.449219 Z M 248.570312 163.796875 " fill-opacity="1" fill-rule="nonzero"/><path fill="#bbdefb" d="M 277.554688 165.46875 C 278.300781 165.46875 278.898438 164.867188 278.898438 164.125 C 278.898438 163.382812 278.296875 162.78125 277.554688 162.78125 C 276.816406 162.78125 276.210938 163.382812 276.210938 164.125 C 276.210938 164.867188 276.816406 165.46875 277.554688 165.46875 Z M 277.554688 165.46875 " fill-opacity="1" fill-rule="nonzero"/><path fill="#bbdefb" d="M 243.574219 169.867188 L 281.910156 169.867188 L 281.910156 170.515625 L 243.574219 170.515625 Z M 243.574219 169.867188 " fill-opacity="1" fill-rule="nonzero"/><path fill="#bbdefb" d="M 281.84375 171.535156 C 282.585938 171.535156 283.1875 170.933594 283.1875 170.191406 C 283.1875 169.449219 282.585938 168.847656 281.84375 168.847656 C 281.101562 168.847656 280.5 169.449219 280.5 170.191406 C 280.5 170.933594 281.101562 171.535156 281.84375 171.535156 Z M 281.84375 171.535156 " fill-opacity="1" fill-rule="nonzero"/><path fill="#bbdefb" d="M 192.148438 202.648438 L 210.960938 183.835938 L 211.726562 184.605469 L 192.917969 203.417969 Z M 192.148438 202.648438 " fill-opacity="1" fill-rule="nonzero"/><path fill="#bbdefb" d="M 212.851562 185.886719 C 213.730469 185.007812 213.730469 183.589844 212.851562 182.714844 C 211.976562 181.839844 210.558594 181.839844 209.683594 182.714844 C 208.808594 183.589844 208.808594 185.007812 209.683594 185.886719 C 210.558594 186.761719 211.976562 186.761719 212.851562 185.886719 Z M 212.851562 185.886719 " fill-opacity="1" fill-rule="nonzero"/><path fill="#bbdefb" d="M 181.816406 194.015625 L 182.582031 193.246094 L 204.726562 215.390625 L 203.957031 216.15625 Z M 181.816406 194.015625 " fill-opacity="1" fill-rule="nonzero"/><path fill="#bbdefb" d="M 202.679688 217.28125 C 203.554688 218.15625 204.972656 218.15625 205.847656 217.28125 C 206.722656 216.40625 206.722656 214.988281 205.847656 214.109375 C 204.972656 213.234375 203.554688 213.234375 202.679688 214.109375 C 201.804688 214.988281 201.804688 216.40625 202.679688 217.28125 Z M 202.679688 217.28125 " fill-opacity="1" fill-rule="nonzero"/><path fill="#bbdefb" d="M 181.105469 180.511719 L 199.78125 161.832031 L 200.550781 162.597656 L 181.871094 181.277344 Z M 181.105469 180.511719 " fill-opacity="1" fill-rule="nonzero"/><path fill="#bbdefb" d="M 201.671875 163.882812 C 202.550781 163.003906 202.550781 161.585938 201.671875 160.710938 C 200.796875 159.835938 199.378906 159.835938 198.503906 160.710938 C 197.628906 161.585938 197.628906 163.003906 198.503906 163.882812 C 199.378906 164.757812 200.796875 164.757812 201.671875 163.882812 Z M 201.671875 163.882812 " fill-opacity="1" fill-rule="nonzero"/><path fill="#bbdefb" d="M 185.355469 188.613281 L 206.34375 167.625 L 207.109375 168.394531 L 186.121094 189.378906 Z M 185.355469 188.613281 " fill-opacity="1" fill-rule="nonzero"/><path fill="#bbdefb" d="M 208.230469 169.671875 C 209.105469 168.796875 209.105469 167.378906 208.230469 166.503906 C 207.355469 165.625 205.9375 165.625 205.0625 166.503906 C 204.1875 167.378906 204.1875 168.796875 205.0625 169.671875 C 205.9375 170.546875 207.355469 170.546875 208.230469 169.671875 Z M 208.230469 169.671875 " fill-opacity="1" fill-rule="nonzero"/><path fill="#bbdefb" d="M 212.53125 183.425781 L 240.621094 183.425781 L 240.621094 184.074219 L 212.53125 184.074219 Z M 212.53125 183.425781 " fill-opacity="1" fill-rule="nonzero"/><path fill="#bbdefb" d="M 240.550781 185.097656 C 241.296875 185.097656 241.894531 184.492188 241.894531 183.75 C 241.894531 183.011719 241.292969 182.40625 240.550781 182.40625 C 239.8125 182.40625 239.207031 183.011719 239.207031 183.75 C 239.207031 184.492188 239.8125 185.097656 240.550781 185.097656 Z M 240.550781 185.097656 " fill-opacity="1" fill-rule="nonzero"/><path fill="#bbdefb" d="M 206.464844 188.421875 L 220.324219 188.421875 L 220.324219 189.070312 L 206.464844 189.070312 Z M 206.464844 188.421875 " fill-opacity="1" fill-rule="nonzero"/><path fill="#bbdefb" d="M 220.257812 190.089844 C 221.003906 190.089844 221.601562 189.488281 221.601562 188.746094 C 221.601562 188.003906 221 187.402344 220.257812 187.402344 C 219.515625 187.402344 218.914062 188.003906 218.914062 188.746094 C 218.914062 189.488281 219.515625 190.089844 220.257812 190.089844 Z M 220.257812 190.089844 " fill-opacity="1" fill-rule="nonzero"/><path fill="#bbdefb" d="M 201.113281 194.128906 L 223.203125 194.128906 L 223.203125 194.78125 L 201.113281 194.78125 Z M 201.113281 194.128906 " fill-opacity="1" fill-rule="nonzero"/><path fill="#bbdefb" d="M 223.136719 195.796875 C 223.878906 195.796875 224.480469 195.195312 224.480469 194.453125 C 224.480469 193.714844 223.875 193.109375 223.136719 193.109375 C 222.394531 193.109375 221.792969 193.714844 221.792969 194.453125 C 221.792969 195.195312 222.394531 195.796875 223.136719 195.796875 Z M 223.136719 195.796875 " fill-opacity="1" fill-rule="nonzero"/><path fill="#bbdefb" d="M 200.398438 161.300781 L 221.125 161.300781 L 221.125 161.953125 L 200.398438 161.953125 Z M 200.398438 161.300781 " fill-opacity="1" fill-rule="nonzero"/><path fill="#bbdefb" d="M 221.054688 162.972656 C 221.800781 162.972656 222.402344 162.371094 222.402344 161.628906 C 222.402344 160.886719 221.796875 160.285156 221.054688 160.285156 C 220.316406 160.285156 219.710938 160.886719 219.710938 161.628906 C 219.710938 162.371094 220.316406 162.972656 221.054688 162.972656 Z M 221.054688 162.972656 " fill-opacity="1" fill-rule="nonzero"/><path fill="#bbdefb" d="M 207.492188 167.042969 L 229.074219 167.042969 L 229.074219 167.691406 L 207.492188 167.691406 Z M 207.492188 167.042969 " fill-opacity="1" fill-rule="nonzero"/><path fill="#bbdefb" d="M 229.007812 168.710938 C 229.75 168.710938 230.351562 168.109375 230.351562 167.367188 C 230.351562 166.625 229.75 166.023438 229.007812 166.023438 C 228.265625 166.023438 227.664062 166.625 227.664062 167.367188 C 227.664062 168.109375 228.265625 168.710938 229.007812 168.710938 Z M 229.007812 168.710938 " fill-opacity="1" fill-rule="nonzero"/><path fill="#bbdefb" d="M 205.039062 216.964844 L 231.445312 216.964844 L 231.445312 217.617188 L 205.039062 217.617188 Z M 205.039062 216.964844 " fill-opacity="1" fill-rule="nonzero"/><g clip-path="url(#8b204fe732)"><path fill="#bbdefb" d="M 217.832031 218.636719 C 218.574219 218.636719 219.175781 218.035156 219.175781 217.292969 C 219.175781 216.550781 218.570312 215.949219 217.832031 215.949219 C 217.089844 215.949219 216.488281 216.550781 216.488281 217.292969 C 216.488281 218.035156 217.089844 218.636719 217.832031 218.636719 Z M 217.832031 218.636719 " fill-opacity="1" fill-rule="nonzero"/></g><path fill="#bbdefb" d="M 203.085938 213.753906 L 222.507812 213.753906 L 222.507812 214.40625 L 203.085938 214.40625 Z M 203.085938 213.753906 " fill-opacity="1" fill-rule="nonzero"/><path fill="#bbdefb" d="M 222.441406 215.425781 C 223.183594 215.425781 223.785156 214.820312 223.785156 214.082031 C 223.785156 213.339844 223.179688 212.738281 222.441406 212.738281 C 221.699219 212.738281 221.09375 213.339844 221.09375 214.082031 C 221.09375 214.820312 221.699219 215.425781 222.441406 215.425781 Z M 222.441406 215.425781 " fill-opacity="1" fill-rule="nonzero"/><g fill="#bbdefb" fill-opacity="1"><g transform="translate(125.522456, 139.334501)"><g><path d="M 13.171875 0 L 8.421875 0 L 8.421875 -9.4375 L 0.109375 -24.03125 L 5.21875 -24.03125 L 10.703125 -14.578125 L 11.109375 -14.578125 L 16.484375 -24.03125 L 21.46875 -24.03125 L 13.171875 -9.4375 Z M 13.171875 0 "/></g></g></g><g fill="#bbdefb" fill-opacity="1"><g transform="translate(147.103695, 139.334501)"><g><path d="M 7.0625 0.34375 C 5.90625 0.34375 4.898438 0.128906 4.046875 -0.296875 C 3.191406 -0.722656 2.53125 -1.347656 2.0625 -2.171875 C 1.601562 -3.003906 1.375 -4 1.375 -5.15625 C 1.375 -6.238281 1.601562 -7.140625 2.0625 -7.859375 C 2.53125 -8.585938 3.242188 -9.1875 4.203125 -9.65625 C 5.171875 -10.125 6.429688 -10.484375 7.984375 -10.734375 C 9.078125 -10.910156 9.90625 -11.101562 10.46875 -11.3125 C 11.03125 -11.519531 11.410156 -11.753906 11.609375 -12.015625 C 11.804688 -12.273438 11.90625 -12.609375 11.90625 -13.015625 C 11.90625 -13.597656 11.703125 -14.039062 11.296875 -14.34375 C 10.890625 -14.65625 10.210938 -14.8125 9.265625 -14.8125 C 8.265625 -14.8125 7.304688 -14.585938 6.390625 -14.140625 C 5.484375 -13.691406 4.695312 -13.097656 4.03125 -12.359375 L 3.703125 -12.359375 L 1.796875 -15.234375 C 2.710938 -16.253906 3.832031 -17.050781 5.15625 -17.625 C 6.488281 -18.195312 7.9375 -18.484375 9.5 -18.484375 C 11.90625 -18.484375 13.644531 -17.972656 14.71875 -16.953125 C 15.789062 -15.929688 16.328125 -14.484375 16.328125 -12.609375 L 16.328125 -4.734375 C 16.328125 -3.921875 16.679688 -3.515625 17.390625 -3.515625 C 17.671875 -3.515625 17.941406 -3.566406 18.203125 -3.671875 L 18.4375 -3.59375 L 18.765625 -0.421875 C 18.503906 -0.265625 18.148438 -0.132812 17.703125 -0.03125 C 17.253906 0.0703125 16.765625 0.125 16.234375 0.125 C 15.140625 0.125 14.289062 -0.0820312 13.6875 -0.5 C 13.082031 -0.914062 12.644531 -1.566406 12.375 -2.453125 L 12.03125 -2.484375 C 11.144531 -0.597656 9.488281 0.34375 7.0625 0.34375 Z M 8.515625 -3.0625 C 9.566406 -3.0625 10.40625 -3.410156 11.03125 -4.109375 C 11.664062 -4.816406 11.984375 -5.800781 11.984375 -7.0625 L 11.984375 -8.90625 L 11.671875 -8.984375 C 11.398438 -8.753906 11.039062 -8.566406 10.59375 -8.421875 C 10.15625 -8.273438 9.519531 -8.128906 8.6875 -7.984375 C 7.695312 -7.828125 6.984375 -7.546875 6.546875 -7.140625 C 6.117188 -6.742188 5.90625 -6.175781 5.90625 -5.4375 C 5.90625 -4.664062 6.132812 -4.078125 6.59375 -3.671875 C 7.050781 -3.265625 7.691406 -3.0625 8.515625 -3.0625 Z M 8.515625 -3.0625 "/></g></g></g><g fill="#bbdefb" fill-opacity="1"><g transform="translate(166.219447, 139.334501)"><g><path d="M 2.609375 0 L 2.609375 -18.140625 L 6.984375 -18.140625 L 6.984375 -15.703125 L 7.328125 -15.640625 C 7.921875 -16.609375 8.613281 -17.320312 9.40625 -17.78125 C 10.207031 -18.25 11.226562 -18.484375 12.46875 -18.484375 C 13.832031 -18.484375 14.929688 -18.210938 15.765625 -17.671875 C 16.597656 -17.128906 17.207031 -16.335938 17.59375 -15.296875 L 17.9375 -15.296875 C 18.5 -16.378906 19.21875 -17.179688 20.09375 -17.703125 C 20.976562 -18.222656 22.078125 -18.484375 23.390625 -18.484375 C 27.148438 -18.484375 29.03125 -16.390625 29.03125 -12.203125 L 29.03125 0 L 24.484375 0 L 24.484375 -11.625 C 24.484375 -12.6875 24.273438 -13.453125 23.859375 -13.921875 C 23.441406 -14.390625 22.769531 -14.625 21.84375 -14.625 C 19.351562 -14.625 18.109375 -12.957031 18.109375 -9.625 L 18.109375 0 L 13.546875 0 L 13.546875 -11.625 C 13.546875 -12.6875 13.332031 -13.453125 12.90625 -13.921875 C 12.488281 -14.390625 11.820312 -14.625 10.90625 -14.625 C 9.726562 -14.625 8.8125 -14.234375 8.15625 -13.453125 C 7.5 -12.671875 7.171875 -11.425781 7.171875 -9.71875 L 7.171875 0 Z M 2.609375 0 "/></g></g></g><g fill="#bbdefb" fill-opacity="1"><g transform="translate(197.580433, 139.334501)"><g><path d="M 12.671875 0.34375 C 10.359375 0.34375 8.640625 -0.519531 7.515625 -2.25 L 7.171875 -2.1875 L 7.171875 0 L 2.609375 0 L 2.609375 -25.421875 L 7.171875 -25.421875 L 7.171875 -16 L 7.515625 -15.9375 C 8.140625 -16.800781 8.875 -17.441406 9.71875 -17.859375 C 10.570312 -18.273438 11.59375 -18.484375 12.78125 -18.484375 C 14.25 -18.484375 15.53125 -18.132812 16.625 -17.4375 C 17.71875 -16.75 18.570312 -15.703125 19.1875 -14.296875 C 19.800781 -12.890625 20.109375 -11.144531 20.109375 -9.0625 C 20.109375 -7 19.789062 -5.265625 19.15625 -3.859375 C 18.519531 -2.453125 17.640625 -1.398438 16.515625 -0.703125 C 15.398438 -0.00390625 14.117188 0.34375 12.671875 0.34375 Z M 11.296875 -3.515625 C 12.628906 -3.515625 13.644531 -3.960938 14.34375 -4.859375 C 15.050781 -5.753906 15.40625 -7.15625 15.40625 -9.0625 C 15.40625 -10.976562 15.050781 -12.378906 14.34375 -13.265625 C 13.644531 -14.160156 12.628906 -14.609375 11.296875 -14.609375 C 10.015625 -14.609375 9 -14.148438 8.25 -13.234375 C 7.5 -12.316406 7.125 -10.925781 7.125 -9.0625 C 7.125 -7.195312 7.5 -5.804688 8.25 -4.890625 C 9 -3.972656 10.015625 -3.515625 11.296875 -3.515625 Z M 11.296875 -3.515625 "/></g></g></g><g fill="#bbdefb" fill-opacity="1"><g transform="translate(219.293164, 139.334501)"><g><path d="M 7.53125 0.34375 C 5.894531 0.34375 4.644531 -0.09375 3.78125 -0.96875 C 2.925781 -1.851562 2.5 -3.195312 2.5 -5 L 2.5 -25.421875 L 7.046875 -25.421875 L 7.046875 -5.171875 C 7.046875 -4.066406 7.507812 -3.515625 8.4375 -3.515625 C 8.695312 -3.515625 8.972656 -3.5625 9.265625 -3.65625 L 9.5 -3.578125 L 9.921875 -0.078125 C 9.660156 0.046875 9.320312 0.144531 8.90625 0.21875 C 8.488281 0.300781 8.03125 0.34375 7.53125 0.34375 Z M 7.53125 0.34375 "/></g></g></g><g fill="#bbdefb" fill-opacity="1"><g transform="translate(229.713953, 139.334501)"><g><path d="M 17.921875 -8.046875 L 6.265625 -8.046875 C 6.398438 -6.460938 6.847656 -5.3125 7.609375 -4.59375 C 8.378906 -3.875 9.425781 -3.515625 10.75 -3.515625 C 11.789062 -3.515625 12.632812 -3.707031 13.28125 -4.09375 C 13.925781 -4.488281 14.445312 -5.082031 14.84375 -5.875 L 15.1875 -5.875 L 18.21875 -3.921875 C 17.625 -2.648438 16.726562 -1.617188 15.53125 -0.828125 C 14.34375 -0.046875 12.75 0.34375 10.75 0.34375 C 8.875 0.34375 7.253906 -0.0078125 5.890625 -0.71875 C 4.523438 -1.4375 3.472656 -2.5 2.734375 -3.90625 C 1.992188 -5.3125 1.625 -7.03125 1.625 -9.0625 C 1.625 -11.125 2.015625 -12.859375 2.796875 -14.265625 C 3.578125 -15.679688 4.628906 -16.738281 5.953125 -17.4375 C 7.273438 -18.132812 8.765625 -18.484375 10.421875 -18.484375 C 12.984375 -18.484375 14.945312 -17.800781 16.3125 -16.4375 C 17.675781 -15.082031 18.359375 -13.085938 18.359375 -10.453125 C 18.359375 -9.503906 18.328125 -8.765625 18.265625 -8.234375 Z M 14.015625 -10.984375 C 13.960938 -12.359375 13.640625 -13.359375 13.046875 -13.984375 C 12.453125 -14.617188 11.578125 -14.9375 10.421875 -14.9375 C 8.117188 -14.9375 6.765625 -13.617188 6.359375 -10.984375 Z M 14.015625 -10.984375 "/></g></g></g></svg>