<svg xmlns="http://www.w3.org/2000/svg" xmlns:xlink="http://www.w3.org/1999/xlink" width="500" zoomAndPan="magnify" viewBox="0 0 375 374.999991" height="500" preserveAspectRatio="xMidYMid meet" version="1.0"><defs><clipPath id="d0d4c5dfd1"><path d="M 37.5 168.75 L 337.5 168.75 L 337.5 300 L 37.5 300 Z M 37.5 168.75 " clip-rule="nonzero"/></clipPath><clipPath id="f916218139"><path d="M 37.5 103.125 L 337.5 103.125 L 337.5 234.375 L 37.5 234.375 Z M 37.5 103.125 " clip-rule="nonzero"/></clipPath><clipPath id="7922b0802c"><path d="M 37.5 37.5 L 337.5 37.5 L 337.5 168.75 L 37.5 168.75 Z M 37.5 37.5 " clip-rule="nonzero"/></clipPath></defs><g clip-path="url(#d0d4c5dfd1)"><path fill="#1e3653" d="M 37.5 300 L 37.5 243.75 L 187.5 168.75 L 337.5 243.75 L 337.5 300 L 187.5 225 Z M 37.5 300 " fill-opacity="1" fill-rule="nonzero"/></g><g clip-path="url(#f916218139)"><path fill="#1e3653" d="M 37.5 234.375 L 37.5 178.125 L 187.5 103.125 L 337.5 178.125 L 337.5 234.375 L 187.5 159.375 Z M 37.5 234.375 " fill-opacity="1" fill-rule="nonzero"/></g><g clip-path="url(#7922b0802c)"><path fill="#1e3653" d="M 37.5 168.75 L 37.5 112.5 L 187.5 37.5 L 337.5 112.5 L 337.5 168.75 L 187.5 93.75 Z M 37.5 168.75 " fill-opacity="1" fill-rule="nonzero"/></g></svg>