<svg xmlns="http://www.w3.org/2000/svg" xmlns:xlink="http://www.w3.org/1999/xlink" width="500" zoomAndPan="magnify" viewBox="0 0 375 374.999991" height="500" preserveAspectRatio="xMidYMid meet" version="1.0"><rect x="-37.5" width="450" fill="#ffffff" y="-37.499999" height="449.999989" fill-opacity="1"/><rect x="-37.5" width="450" fill="#ffffff" y="-37.499999" height="449.999989" fill-opacity="1"/><path fill="#eeba2b" d="M 193.46875 50.652344 L 227.054688 137.9375 C 227.953125 140.261719 230.113281 141.863281 232.601562 142.035156 L 329.226562 148.722656 C 335.035156 149.125 337.351562 156.425781 332.839844 160.097656 L 254.296875 224.074219 C 252.257812 225.734375 251.4375 228.46875 252.230469 230.972656 L 280 319.304688 C 281.773438 324.945312 275.617188 329.78125 270.554688 326.71875 L 190.804688 278.445312 C 188.761719 277.207031 186.203125 277.207031 184.160156 278.445312 L 104.410156 326.71875 C 99.347656 329.78125 93.191406 324.945312 94.964844 319.304688 L 122.734375 230.972656 C 123.523438 228.46875 122.703125 225.734375 120.667969 224.074219 L 42.125 160.097656 C 37.613281 156.425781 39.929688 149.125 45.734375 148.722656 L 142.363281 142.035156 C 144.851562 141.863281 147.011719 140.261719 147.90625 137.9375 L 181.492188 50.652344 C 183.601562 45.167969 191.359375 45.167969 193.46875 50.652344 " fill-opacity="1" fill-rule="nonzero"/></svg>