<svg xmlns="http://www.w3.org/2000/svg" xmlns:xlink="http://www.w3.org/1999/xlink" width="500" zoomAndPan="magnify" viewBox="0 0 375 374.999991" height="500" preserveAspectRatio="xMidYMid meet" version="1.0"><defs><clipPath id="176784c545"><path d="M 37.5 187.5 L 337.5 187.5 L 337.5 318.75 L 37.5 318.75 Z M 37.5 187.5 " clip-rule="nonzero"/></clipPath><clipPath id="09996cea41"><path d="M 37.5 121.875 L 337.5 121.875 L 337.5 253.125 L 37.5 253.125 Z M 37.5 121.875 " clip-rule="nonzero"/></clipPath><clipPath id="f50c5514d6"><path d="M 37.5 56.25 L 337.5 56.25 L 337.5 187.5 L 37.5 187.5 Z M 37.5 56.25 " clip-rule="nonzero"/></clipPath></defs><rect x="-37.5" width="450" fill="#ffffff" y="-37.499999" height="449.999989" fill-opacity="1"/><rect x="-37.5" width="450" fill="#ffffff" y="-37.499999" height="449.999989" fill-opacity="1"/><g clip-path="url(#176784c545)"><path fill="#1e3653" d="M 37.5 318.75 L 37.5 262.5 L 187.5 187.5 L 337.5 262.5 L 337.5 318.75 L 187.5 243.75 Z M 37.5 318.75 " fill-opacity="1" fill-rule="nonzero"/></g><g clip-path="url(#09996cea41)"><path fill="#1e3653" d="M 37.5 253.125 L 37.5 196.875 L 187.5 121.875 L 337.5 196.875 L 337.5 253.125 L 187.5 178.125 Z M 37.5 253.125 " fill-opacity="1" fill-rule="nonzero"/></g><g clip-path="url(#f50c5514d6)"><path fill="#1e3653" d="M 37.5 187.5 L 37.5 131.25 L 187.5 56.25 L 337.5 131.25 L 337.5 187.5 L 187.5 112.5 Z M 37.5 187.5 " fill-opacity="1" fill-rule="nonzero"/></g></svg>