<svg xmlns="http://www.w3.org/2000/svg" xmlns:xlink="http://www.w3.org/1999/xlink" width="500" zoomAndPan="magnify" viewBox="0 0 375 374.999991" height="500" preserveAspectRatio="xMidYMid meet" version="1.0"><rect x="-37.5" width="450" fill="#ffffff" y="-37.499999" height="449.999989" fill-opacity="1"/><rect x="-37.5" width="450" fill="#ffffff" y="-37.499999" height="449.999989" fill-opacity="1"/><path fill="#eeba2b" d="M 190.644531 40.382812 L 208.34375 86.378906 C 208.816406 87.605469 209.957031 88.449219 211.265625 88.539062 L 262.1875 92.0625 C 265.25 92.277344 266.46875 96.125 264.09375 98.058594 L 222.699219 131.773438 C 221.625 132.648438 221.195312 134.089844 221.609375 135.410156 L 236.246094 181.960938 C 237.179688 184.9375 233.9375 187.484375 231.269531 185.867188 L 189.238281 160.429688 C 188.164062 159.777344 186.8125 159.777344 185.738281 160.429688 L 143.707031 185.867188 C 141.039062 187.484375 137.796875 184.9375 138.730469 181.960938 L 153.367188 135.410156 C 153.78125 134.089844 153.351562 132.648438 152.277344 131.773438 L 110.882812 98.058594 C 108.507812 96.125 109.726562 92.277344 112.785156 92.0625 L 163.710938 88.539062 C 165.019531 88.449219 166.160156 87.605469 166.632812 86.378906 L 184.332031 40.382812 C 185.445312 37.492188 189.53125 37.492188 190.644531 40.382812 " fill-opacity="1" fill-rule="nonzero"/><path fill="#eeba2b" d="M 190.644531 190.382812 L 208.34375 236.378906 C 208.816406 237.605469 209.957031 238.449219 211.265625 238.539062 L 262.1875 242.0625 C 265.25 242.277344 266.46875 246.125 264.09375 248.058594 L 222.699219 281.773438 C 221.625 282.648438 221.195312 284.089844 221.609375 285.410156 L 236.246094 331.960938 C 237.179688 334.9375 233.9375 337.484375 231.269531 335.867188 L 189.238281 310.429688 C 188.164062 309.777344 186.8125 309.777344 185.738281 310.429688 L 143.707031 335.867188 C 141.039062 337.484375 137.796875 334.9375 138.730469 331.960938 L 153.367188 285.410156 C 153.78125 284.089844 153.351562 282.648438 152.277344 281.773438 L 110.882812 248.058594 C 108.507812 246.125 109.726562 242.277344 112.785156 242.0625 L 163.710938 238.539062 C 165.019531 238.449219 166.160156 237.605469 166.632812 236.378906 L 184.332031 190.382812 C 185.445312 187.492188 189.53125 187.492188 190.644531 190.382812 " fill-opacity="1" fill-rule="nonzero"/></svg>