<svg xmlns="http://www.w3.org/2000/svg" xmlns:xlink="http://www.w3.org/1999/xlink" width="500" zoomAndPan="magnify" viewBox="0 0 375 374.999991" height="500" preserveAspectRatio="xMidYMid meet" version="1.0"><defs><clipPath id="a61c96563e"><path d="M 113 45.1875 L 262 45.1875 L 262 187 L 113 187 Z M 113 45.1875 " clip-rule="nonzero"/></clipPath></defs><rect x="-37.5" width="450" fill="#ffffff" y="-37.499999" height="449.999989" fill-opacity="1"/><rect x="-37.5" width="450" fill="#ffffff" y="-37.499999" height="449.999989" fill-opacity="1"/><g clip-path="url(#a61c96563e)"><path fill="#eeba2b" d="M 190.484375 47.921875 L 207.277344 91.5625 C 207.726562 92.726562 208.808594 93.523438 210.050781 93.609375 L 258.363281 96.957031 C 261.265625 97.15625 262.425781 100.804688 260.167969 102.644531 L 220.898438 134.632812 C 219.878906 135.460938 219.46875 136.828125 219.863281 138.082031 L 233.75 182.246094 C 234.636719 185.066406 231.558594 187.484375 229.027344 185.953125 L 189.152344 161.816406 C 188.132812 161.199219 186.851562 161.199219 185.828125 161.816406 L 145.953125 185.953125 C 143.425781 187.484375 140.34375 185.066406 141.234375 182.246094 L 155.117188 138.082031 C 155.511719 136.828125 155.101562 135.460938 154.082031 134.632812 L 114.8125 102.644531 C 112.558594 100.804688 113.714844 97.15625 116.617188 96.957031 L 164.929688 93.609375 C 166.175781 93.523438 167.257812 92.726562 167.703125 91.5625 L 184.496094 47.921875 C 185.550781 45.179688 189.429688 45.179688 190.484375 47.921875 " fill-opacity="1" fill-rule="nonzero"/></g><path fill="#eeba2b" d="M 115.484375 190.234375 L 132.277344 233.875 C 132.726562 235.039062 133.808594 235.835938 135.050781 235.921875 L 183.363281 239.269531 C 186.265625 239.46875 187.425781 243.117188 185.167969 244.957031 L 145.898438 276.945312 C 144.878906 277.773438 144.46875 279.140625 144.863281 280.394531 L 158.75 324.558594 C 159.636719 327.378906 156.558594 329.796875 154.027344 328.265625 L 114.152344 304.128906 C 113.132812 303.511719 111.851562 303.511719 110.828125 304.128906 L 70.953125 328.265625 C 68.425781 329.796875 65.34375 327.378906 66.234375 324.558594 L 80.117188 280.394531 C 80.511719 279.140625 80.101562 277.773438 79.082031 276.945312 L 39.8125 244.957031 C 37.558594 243.117188 38.714844 239.46875 41.617188 239.269531 L 89.929688 235.921875 C 91.175781 235.835938 92.257812 235.039062 92.703125 233.875 L 109.496094 190.234375 C 110.550781 187.492188 114.429688 187.492188 115.484375 190.234375 " fill-opacity="1" fill-rule="nonzero"/><path fill="#eeba2b" d="M 265.484375 190.234375 L 282.277344 233.875 C 282.726562 235.039062 283.808594 235.835938 285.050781 235.921875 L 333.363281 239.269531 C 336.265625 239.46875 337.425781 243.117188 335.167969 244.957031 L 295.898438 276.945312 C 294.878906 277.773438 294.46875 279.140625 294.863281 280.394531 L 308.75 324.558594 C 309.636719 327.378906 306.558594 329.796875 304.027344 328.265625 L 264.152344 304.128906 C 263.132812 303.511719 261.851562 303.511719 260.828125 304.128906 L 220.953125 328.265625 C 218.425781 329.796875 215.34375 327.378906 216.234375 324.558594 L 230.117188 280.394531 C 230.511719 279.140625 230.101562 277.773438 229.082031 276.945312 L 189.8125 244.957031 C 187.558594 243.117188 188.714844 239.46875 191.617188 239.269531 L 239.929688 235.921875 C 241.175781 235.835938 242.257812 235.039062 242.703125 233.875 L 259.496094 190.234375 C 260.550781 187.492188 264.429688 187.492188 265.484375 190.234375 " fill-opacity="1" fill-rule="nonzero"/></svg>